<svg width="128" height="128" viewBox="0 0 128 128" fill="none" xmlns="http://www.w3.org/2000/svg">
<rect y="63.6396" width="90" height="90" transform="rotate(-45 0 63.6396)" fill="#0E20C4"/>
<path d="M53.5 39H74.5C82.5 39 89 45.5 89 53.5V74.5C89 78.3457 87.4723 82.0338 84.753 84.7531C82.0338 87.4724 78.3456 89 74.5 89H53.5C45.5 89 39 82.5 39 74.5V53.5C39 49.6544 40.5277 45.9663 43.247 43.247C45.9662 40.5277 49.6544 39 53.5 39ZM53 44C50.6131 44 48.3239 44.9482 46.636 46.6361C44.9482 48.3239 44 50.6131 44 53V75C44 79.975 48.025 84 53 84H75C77.3869 84 79.6761 83.0518 81.364 81.364C83.0518 79.6762 84 77.387 84 75V53C84 48.025 79.975 44 75 44H53ZM77.125 47.75C77.9538 47.75 78.7487 48.0793 79.3347 48.6653C79.9208 49.2514 80.25 50.0462 80.25 50.875C80.25 51.7038 79.9208 52.4987 79.3347 53.0847C78.7487 53.6708 77.9538 54 77.125 54C76.2962 54 75.5013 53.6708 74.9153 53.0847C74.3292 52.4987 74 51.7038 74 50.875C74 50.0462 74.3292 49.2514 74.9153 48.6653C75.5013 48.0793 76.2962 47.75 77.125 47.75ZM64 51.5C67.3152 51.5 70.4946 52.817 72.8388 55.1612C75.183 57.5054 76.5 60.6848 76.5 64C76.5 67.3152 75.183 70.4947 72.8388 72.8389C70.4946 75.1831 67.3152 76.5 64 76.5C60.6848 76.5 57.5054 75.1831 55.1612 72.8389C52.817 70.4947 51.5 67.3152 51.5 64C51.5 60.6848 52.817 57.5054 55.1612 55.1612C57.5054 52.817 60.6848 51.5 64 51.5ZM64 56.5C62.0109 56.5 60.1032 57.2902 58.6967 58.6967C57.2902 60.1033 56.5 62.0109 56.5 64C56.5 65.9892 57.2902 67.8968 58.6967 69.3033C60.1032 70.7099 62.0109 71.5 64 71.5C65.9891 71.5 67.8968 70.7099 69.3033 69.3033C70.7098 67.8968 71.5 65.9892 71.5 64C71.5 62.0109 70.7098 60.1033 69.3033 58.6967C67.8968 57.2902 65.9891 56.5 64 56.5Z" fill="white"/>
</svg>
